<svg xmlns="http://www.w3.org/2000/svg" xmlns:xlink="http://www.w3.org/1999/xlink"><defs><symbol viewBox="0 0 79 51" id="icon-bx24"><defs><path id="icon-bx24_dfh6a" d="M1061.737 3409.358v15.474c0 .644-.518 1.167-1.158 1.167a1.163 1.163 0 0 1-1.157-1.167v-15.474c0-.135-.01-.269-.023-.401l-3.099 3.126a2.571 2.571 0 0 0-.747 1.821v10.928c0 .645-.519 1.167-1.158 1.167-.639 0-1.157-.522-1.157-1.167v-10.928c0-1.311.506-2.544 1.426-3.472l3.694-3.727a3.782 3.782 0 0 0-1.187-.841l-6.61-2.964-4.903 4.946v16.986c0 .644-.519 1.167-1.158 1.167-.639 0-1.157-.523-1.157-1.167v-16.986l-4.903-4.946-6.61 2.964a3.78 3.78 0 0 0-1.187.841l3.694 3.727a4.901 4.901 0 0 1 1.426 3.472v10.928c0 .645-.519 1.167-1.158 1.167a1.162 1.162 0 0 1-1.157-1.167v-10.928c0-.688-.266-1.335-.748-1.821l-3.098-3.126a3.853 3.853 0 0 0-.024.401v15.474c0 .644-.518 1.167-1.157 1.167-.64 0-1.157-.523-1.157-1.167v-15.474a6.166 6.166 0 0 1 3.625-5.627l6.725-3.016a1.33 1.33 0 0 0 .781-1.213v-1.863a9.919 9.919 0 0 1-3.71-7.746v-.516a2.274 2.274 0 0 1-.313-.204c-.587-.458-.924-1.172-.924-1.962v-2.31c0-5.459 4.403-9.9 9.815-9.9h2.474c5.412 0 9.815 4.441 9.815 9.9v.256c0 .897-.492 1.7-1.236 2.114v2.622a9.918 9.918 0 0 1-3.711 7.746v1.863c0 .524.306 1 .782 1.214l6.724 3.015a6.168 6.168 0 0 1 3.626 5.627zm-12.935-7.986a3.68 3.68 0 0 1-.512-1.87v-.475a9.691 9.691 0 0 1-3.79.768 9.686 9.686 0 0 1-3.79-.768v.475c0 .672-.185 1.314-.512 1.87l4.302 4.34zm3.199-11.479v-2.11c-3.192.388-8.436.322-12.03-3.303a1.175 1.175 0 0 1 0-1.651 1.15 1.15 0 0 1 1.637 0c1.172 1.183 4.648 3.785 11.578 2.404.03-.006.052-.038.052-.076v-.255c0-4.172-3.365-7.567-7.501-7.567h-2.474c-4.136 0-7.5 3.395-7.5 7.567v2.31c0 .054.01.089.019.105a.221.221 0 0 0 .03-.006c.562-.148 1.14-.496 1.72-1.035a1.15 1.15 0 0 1 1.634.066 1.174 1.174 0 0 1-.065 1.65c-.675.628-1.38 1.087-2.102 1.376v.525c0 4.173 3.365 7.568 7.501 7.568s7.5-3.395 7.5-7.568zm-29.844 14.608v2.567c0 .507.279.961.728 1.188l1.103.557c.572.288.804.99.518 1.566a1.156 1.156 0 0 1-1.553.522l-1.104-.556a3.679 3.679 0 0 1-.573-.362l-2.83 2.854v11.995c0 .645-.518 1.168-1.157 1.168a1.162 1.162 0 0 1-1.157-1.168v-11.994l-2.83-2.855a3.673 3.673 0 0 1-.573.362l-4.003 2.019c-.204.102-.388.23-.553.377.013.011.027.022.04.035l2.623 2.647a4.901 4.901 0 0 1 1.426 3.473v5.936c0 .645-.518 1.168-1.157 1.168-.64 0-1.158-.523-1.158-1.168v-5.936c0-.688-.265-1.335-.747-1.822l-1.886-1.901v9.659c0 .645-.518 1.168-1.157 1.168s-1.157-.523-1.157-1.168v-10.165a4.89 4.89 0 0 1 2.69-4.392l4.003-2.02c.45-.226.728-.68.728-1.187v-2.568a8.671 8.671 0 0 1-3.71-7.12v-2.496a8.67 8.67 0 0 1 3.932-7.269 4.924 4.924 0 0 1-.222-1.465c0-2.708 2.184-4.911 4.868-4.911s4.868 2.203 4.868 4.91c0 .499-.077.993-.223 1.466a8.671 8.671 0 0 1 3.933 7.27v2.496c0 2.949-1.47 5.557-3.71 7.12zm-7.421-18.351c0 .156.017.308.044.459a8.481 8.481 0 0 1 5.022.001c.026-.15.04-.304.04-.46 0-1.42-1.145-2.576-2.553-2.576s-2.553 1.156-2.553 2.576zm-3.707 8.573c.781-.26 1.863-.797 2.968-1.912a1.153 1.153 0 0 1 1.744.125c.123.162 2.994 3.86 7.812 2.372v-.423c0-3.485-2.81-6.32-6.264-6.32-3.4 0-6.174 2.748-6.26 6.158zm8.934 13.282c-.078-.3-.12-.615-.12-.937v-1.425a8.483 8.483 0 0 1-2.554.392 8.483 8.483 0 0 1-2.553-.392v1.425c0 .322-.043.636-.121.937l2.674 2.698zm3.58-10.278a9.14 9.14 0 0 1-6.653-.882 10.449 10.449 0 0 1-2.146-1.576c-1.428 1.158-2.796 1.655-3.719 1.87v.241c0 3.484 2.81 6.32 6.264 6.32 3.338 0 6.075-2.65 6.254-5.973zm60.457 14.445v12.66c0 .645-.518 1.167-1.157 1.167-.64 0-1.158-.522-1.158-1.167v-12.66c0-.226-.03-.447-.084-.658l-1.8 1.817a2.571 2.571 0 0 0-.749 1.821v9.68c0 .645-.518 1.167-1.157 1.167s-1.157-.522-1.157-1.167v-9.68c0-1.311.506-2.545 1.426-3.472l1.9-1.918-6.266-3.161a3.65 3.65 0 0 1-.574-.362l-2.83 2.855v15.738c0 .645-.518 1.168-1.157 1.168s-1.157-.523-1.157-1.168v-15.738l-2.83-2.854a3.668 3.668 0 0 1-.573.361 1.156 1.156 0 0 1-1.553-.522 1.172 1.172 0 0 1 .518-1.566c.449-.227.728-.682.728-1.188v-1.655a7.417 7.417 0 0 1-2.474-5.538v-1.33l-.08.003a1.163 1.163 0 0 1-1.157-1.168v-2.496c0-4.083 3.293-7.406 7.341-7.406h2.474c4.048 0 7.342 3.323 7.342 7.406v2.496c0 .645-.518 1.168-1.158 1.168l-.08-.001v1.328c0 2.202-.957 4.18-2.473 5.538v1.655c0 .506.279.961.728 1.188l6.476 3.266a4.888 4.888 0 0 1 2.69 4.393zm-18.055-21.856a1.15 1.15 0 0 1 1.46-.146c.03.02 3.066 1.994 8.096 2.268v-1.297c0-2.796-2.255-5.071-5.027-5.071H1068c-2.771 0-5.027 2.275-5.027 5.071v1.088c.78-.259 1.865-.796 2.972-1.913zm5.966 13.945a3.716 3.716 0 0 1-.12-.936v-.25a7.248 7.248 0 0 1-2.554.464 7.247 7.247 0 0 1-2.553-.463v.249c0 .322-.043.635-.12.936l2.673 2.698zm2.353-8.129v-1.449c-3.58-.364-6.123-1.467-7.338-2.105a9.785 9.785 0 0 1-2.716 1.672v1.882c0 2.797 2.255 5.072 5.027 5.072 2.772 0 5.027-2.275 5.027-5.072z" /></defs><g><g transform="translate(-1005 -3375)"><use fill="#3bc8f5" xlink:href="#icon-bx24_dfh6a" /></g></g></symbol><symbol viewBox="0 0 30 30" id="icon-fb"><defs><path id="icon-fb_s37ba" d="M1610.772 6170.23a93.26 93.26 0 0 0-13.563 0c-3.902.332-7.65 4.08-7.98 7.982a93.21 93.21 0 0 0 0 13.563c.33 3.902 4.078 7.65 7.98 7.98 4.52.33 9.042.33 13.563 0 3.902-.33 7.65-4.078 7.98-7.98.33-4.521.33-9.043 0-13.563-.33-3.902-4.078-7.65-7.98-7.982z" /><path id="icon-fb_s37bb" d="M1608.283 6179.817c-.4-.12-.86-.2-1.28-.2-.52 0-1.64.34-1.64 1v1.58h2.66v2.66h-2.66v7.343h-2.68v-7.342h-1.321v-2.66h1.32v-1.341c0-2.02.92-3.7 3.14-3.7.761 0 2.121.04 2.861.3z" /></defs><g><g transform="translate(-1589 -6170)"><use fill="currentColor" xlink:href="#icon-fb_s37ba" /></g><g transform="translate(-1589 -6170)"><use fill="#fff" xlink:href="#icon-fb_s37bb" /></g></g></symbol><symbol viewBox="0 0 30 30" id="icon-ig"><defs><path id="icon-ig_zj8wa" d="M1655.772 6170.23a93.26 93.26 0 0 0-13.563 0c-3.902.332-7.65 4.08-7.98 7.982a93.21 93.21 0 0 0 0 13.563c.33 3.902 4.078 7.65 7.98 7.98 4.52.33 9.042.33 13.563 0 3.902-.33 7.65-4.078 7.98-7.98.33-4.521.33-9.043 0-13.563-.33-3.902-4.078-7.65-7.98-7.982z" /><path id="icon-ig_zj8wb" d="M1656.887 6188.368c-.118 2.311-2.216 4.412-4.524 4.53a78.267 78.267 0 0 1-6.762 0c-2.308-.118-4.406-2.219-4.524-4.53a78.464 78.464 0 0 1 0-6.774c.118-2.312 2.216-4.412 4.524-4.53a78.267 78.267 0 0 1 6.762 0c2.308.118 4.406 2.218 4.524 4.53a78.464 78.464 0 0 1 0 6.774zm-3.186-7.78a1.171 1.171 0 1 0-2.342-.001 1.171 1.171 0 0 0 2.342.002zm-.71 4.416a3.999 3.999 0 0 0-3.995-4.001 3.999 3.999 0 0 0-3.995 4.001 3.998 3.998 0 0 0 3.995 4.002 3.998 3.998 0 0 0 3.995-4.002zm-1.468-.051a2.515 2.515 0 0 1-2.512 2.516 2.515 2.515 0 0 1-2.513-2.516 2.515 2.515 0 0 1 2.513-2.517 2.515 2.515 0 0 1 2.512 2.517z" /></defs><g><g transform="translate(-1634 -6170)"><use fill="currentColor" xlink:href="#icon-ig_zj8wa" /></g><g transform="translate(-1634 -6170)"><use fill="#fff" xlink:href="#icon-ig_zj8wb" /></g></g></symbol><symbol viewBox="0 0 74 74" id="icon-key"><defs><path id="icon-key_a9xba" d="M547.538 3203.596a1.44 1.44 0 0 1-2.044.01l-.048-.048a1.445 1.445 0 1 1 2.04-2.048l.042.042c.567.562.571 1.477.01 2.044zm31.018-.04a23.421 23.421 0 0 1-16.576 6.861c-4.04 0-8.104-1.043-11.773-3.183a1.446 1.446 0 0 1 1.458-2.497c8.039 4.692 18.256 3.366 24.847-3.225 8.002-8.002 8.002-21.023 0-29.025-8.002-8.002-21.022-8.002-29.024 0-6.551 6.552-7.902 16.727-3.285 24.745a1.445 1.445 0 1 1-2.505 1.442c-5.268-9.148-3.728-20.757 3.746-28.23 9.129-9.13 23.983-9.13 33.112 0 9.13 9.129 9.13 23.983 0 33.112zM599 3193.322c0 .711-.517 1.316-1.219 1.428l-5.332.849-2.826 6.83 3.173 4.369a1.445 1.445 0 0 1-.147 1.87l-8.958 8.965a1.444 1.444 0 0 1-1.87.148l-4.373-3.171-6.826 2.83-.845 5.335a1.445 1.445 0 0 1-1.427 1.22l-12.673.005c-.71 0-1.316-.517-1.427-1.219l-.85-5.332-6.83-2.826-4.368 3.173a1.446 1.446 0 0 1-1.871-.147l-8.964-8.957a1.445 1.445 0 0 1-.149-1.871l3.172-4.373-2.83-6.826-5.336-.845a1.446 1.446 0 0 1-1.219-1.427l-.005-12.673c0-.71.516-1.316 1.218-1.428l5.333-.849 2.826-6.83-3.174-4.368a1.446 1.446 0 0 1 .147-1.872l8.958-8.964a1.445 1.445 0 0 1 1.871-.148l4.373 3.172 6.825-2.831.846-5.335a1.446 1.446 0 0 1 1.426-1.22l12.673-.004c.711 0 1.316.516 1.428 1.218l.85 5.332 6.83 2.826 4.368-3.173a1.446 1.446 0 0 1 1.871.147l8.964 8.957c.503.503.566 1.296.148 1.872l-3.171 4.372 2.83 6.826 5.335.845a1.446 1.446 0 0 1 1.22 1.427zm-2.891-1.233l-.005-10.205-4.915-.779a1.445 1.445 0 0 1-1.109-.874l-3.45-8.32a1.446 1.446 0 0 1 .165-1.402l2.922-4.029-7.218-7.213-4.025 2.923a1.447 1.447 0 0 1-1.402.167l-8.325-3.445a1.446 1.446 0 0 1-.875-1.109l-.782-4.912-10.205.004-.78 4.915c-.078.496-.409.917-.873 1.11l-8.32 3.45c-.465.192-.996.13-1.402-.166l-4.03-2.922-7.213 7.219 2.924 4.024c.295.407.358.938.166 1.403l-3.445 8.325a1.446 1.446 0 0 1-1.108.875l-4.913.782.005 10.205 4.915.779c.497.078.916.41 1.109.874l3.45 8.32c.193.465.13.995-.165 1.402l-2.922 4.029 7.218 7.213 4.025-2.923a1.444 1.444 0 0 1 1.402-.166l8.325 3.445c.465.192.796.612.875 1.108l.782 4.912 10.205-.004.78-4.915c.078-.497.409-.917.873-1.11l8.32-3.45c.465-.192.996-.13 1.402.166l4.03 2.922 7.213-7.219-2.924-4.024a1.446 1.446 0 0 1-.166-1.403l3.445-8.325a1.446 1.446 0 0 1 1.108-.875zm-18.881 5.669a1.445 1.445 0 0 1-2.364.483l-2.082-2.081a1.139 1.139 0 0 0-1.61 1.609l2.088 2.086a1.445 1.445 0 0 1-.481 2.362 8.029 8.029 0 0 1-8.703-1.769 8.075 8.075 0 0 1-2.26-6.926l-6.341-6.341a8.002 8.002 0 0 1-6.642-1.982 8.081 8.081 0 0 1-2.051-8.981 1.444 1.444 0 0 1 2.361-.48l2.103 2.103a1.139 1.139 0 0 0 1.61-1.609l-2.096-2.095a1.446 1.446 0 0 1 .485-2.364 8.036 8.036 0 0 1 8.679 1.778 8.076 8.076 0 0 1 2.26 6.92l6.348 6.347a8.004 8.004 0 0 1 6.635 1.982 8.086 8.086 0 0 1 2.06 8.958zm-2.352-3.592a5.175 5.175 0 0 0-1.653-3.226 5.142 5.142 0 0 0-4.793-1.152 1.445 1.445 0 0 1-1.39-.375l-7.45-7.45a1.445 1.445 0 0 1-.375-1.393 5.175 5.175 0 0 0-1.335-4.975 5.145 5.145 0 0 0-3.049-1.475l.068.069a4.033 4.033 0 0 1 0 5.696 4.033 4.033 0 0 1-5.697 0l-.083-.083a5.175 5.175 0 0 0 1.658 3.257 5.139 5.139 0 0 0 4.797 1.15 1.446 1.446 0 0 1 1.393.375l7.445 7.446c.364.365.507.896.374 1.394a5.175 5.175 0 0 0 1.334 4.98 5.142 5.142 0 0 0 3.08 1.48l-.07-.072a4.032 4.032 0 0 1 0-5.696 4.032 4.032 0 0 1 5.696 0zm.078-15.458a1.444 1.444 0 0 1-2.029-.247 13.9 13.9 0 0 0-7.866-4.99 1.445 1.445 0 1 1 .634-2.82 16.8 16.8 0 0 1 9.509 6.027 1.445 1.445 0 0 1-.248 2.03zm2.072 4.999a1.446 1.446 0 0 1-1.816-.937l-.019-.057a1.445 1.445 0 1 1 2.75-.888l.022.065a1.445 1.445 0 0 1-.937 1.817z" /></defs><g><g transform="translate(-525 -3150)"><use fill="#3bc8f5" xlink:href="#icon-key_a9xba" /></g></g></symbol><symbol viewBox="0 0 22 39" id="icon-left"><defs><path id="icon-left_dm3ya" d="M288.79 4296.56l16.574-16.768a2.677 2.677 0 0 1 3.817 0 2.754 2.754 0 0 1 0 3.861l-14.665 14.838 14.664 14.837a2.754 2.754 0 0 1 0 3.862 2.677 2.677 0 0 1-3.817 0l-16.574-16.768a2.738 2.738 0 0 1-.79-1.931c0-.699.265-1.398.79-1.93z" /></defs><g><g transform="translate(-288 -4279)"><use fill="#fff" xlink:href="#icon-left_dm3ya" /></g></g></symbol><symbol viewBox="0 0 9 10" id="icon-mark"><defs><path id="icon-mark_w86fa" d="M1131.35 5897a.923.923 0 0 1-.749-.395l-2.409-3.371a1.035 1.035 0 0 1 .182-1.395.906.906 0 0 1 1.317.193l1.584 2.217 3.986-6.78c.274-.466.853-.609 1.295-.319.44.29.575.905.3 1.372l-4.708 8.008a.931.931 0 0 1-.755.469h-.043z" /></defs><g><g transform="translate(-1128 -5887)"><use fill="#3bc8f5" xlink:href="#icon-mark_w86fa" /></g></g></symbol><symbol viewBox="0 0 48 48" id="icon-money"><defs><path id="icon-money_9bnva" d="M333 2272.2v22.4a2.4 2.4 0 0 1-2.4 2.4h-16a2.4 2.4 0 0 1-2.4-2.4v-22.4a2.4 2.4 0 0 1 2.4-2.4h16a2.4 2.4 0 0 1 2.4 2.4zm-11.2 16.8h-8v5.6a.8.8 0 0 0 .8.8h7.2zm0-8h-8v6.4h8zm9.6 8h-8v6.4h7.2a.8.8 0 0 0 .8-.8zm0-8h-8v6.4h8zm0-8.8a.8.8 0 0 0-.8-.8h-16a.8.8 0 0 0-.8.8v7.2h17.6zm-1.6 1.6v3.2a.8.8 0 0 1-.8.8h-12.8a.8.8 0 0 1-.8-.8v-3.2a.8.8 0 0 1 .8-.8H329a.8.8 0 0 1 .8.8zm-1.6.8H317v1.6h11.2zm-8 8.8v1.6h-1.6v1.6H317v-1.6h-1.6v-1.6h1.6v-1.6h1.6v1.6zm4.8 0h4.8v1.6H325zm-6.069 8.897l1.131 1.13-1.13 1.132-1.132-1.131-1.131 1.131-1.131-1.131 1.13-1.131-1.13-1.131 1.13-1.132 1.132 1.132 1.131-1.132 1.131 1.132zm6.069-.897h4.8v1.6H325zm1.6 2h1.6v.8h-1.6zm0-3.2h1.6v.8h-1.6zm-8-39.6v17.6H317v-17.6h-22.4v6.4a1.6 1.6 0 0 1-1.6 1.6h-6.4v36.8h1.6v-3.2a.8.8 0 0 1 .8-.8h1.6v-2.4H289a.8.8 0 0 1-.8-.8v-4a.8.8 0 0 1 .8-.8h1.6v-3.2a.8.8 0 0 1 .8-.8h6.42a8 8 0 1 1 9.558 0h.022a.8.8 0 0 1 .8.8v4a.8.8 0 0 1-.8.8h-1.6v2.4h1.6a.8.8 0 0 1 .8.8v4a.8.8 0 0 1-.8.8h-1.6v2.4h4.8v1.6h-24a1.6 1.6 0 0 1-1.6-1.6v-37.6h.007a.793.793 0 0 1 .227-.566l8-8a.796.796 0 0 1 .566-.227V2249H317a1.6 1.6 0 0 1 1.6 1.6zm-26.4 38.4v2.4h14.4v-2.4zm10.4-9.6a6.4 6.4 0 1 0-6.4-6.4 6.407 6.407 0 0 0 6.4 6.4zm-10.4 4h14.4v-2.4h-14.4zm12 4v-2.4h-14.4v2.4zm-14.4 8h14.4v-2.4h-14.4zm3.2-43.669l-5.269 5.269H293zm8.8 19.669a.8.8 0 0 0 .8.8 2.393 2.393 0 0 1 .8 4.652v.948h-1.6v-.8h-1.6v-1.6h2.4a.8.8 0 0 0 0-1.6 2.395 2.395 0 0 1-.8-4.653v-.947h1.6v.8h1.6v1.6h-2.4a.8.8 0 0 0-.8.8zm29.6-16.8v10.4h-1.6v-10.4h-1.6v13.6h-1.6v-14.4h-4.8v14.4h-1.6V2253a.8.8 0 0 1 .8-.8h.8v-2.4a.8.8 0 0 1 .8-.8h3.2a.8.8 0 0 1 .8.8v2.4h.8a.8.8 0 0 1 .8.8h1.6a1.6 1.6 0 0 1 1.6 1.6zm-6.4-4h-1.6v1.6h1.6zm-28 4.8h13.6v1.6H297zm-8.8 4.8h27.2v1.6h-27.2zm0 3.2h9.6v1.6h-9.6zm20 0h7.2v1.6h-7.2z" /></defs><g><g transform="translate(-285 -2249)"><use fill="#3bc8f5" xlink:href="#icon-money_9bnva" /></g></g></symbol><symbol viewBox="0 0 496 496" id="icon-reg"><path d="m464 389.480469v-234.167969l18.34375 18.34375 11.3125-11.3125-32-32c-3.128906-3.128906-8.183594-3.128906-11.3125 0l-32 32 11.3125 11.3125 18.34375-18.34375v229.328125c-2.625-.375-5.28125-.640625-8-.640625-30.878906 0-56 25.128906-56 56s25.121094 56 56 56 56-25.128906 56-56c0-22.28125-13.113281-41.503906-32-50.519531zm-24 90.519531c-22.054688 0-40-17.945312-40-40s17.945312-40 40-40 40 17.945312 40 40-17.945312 40-40 40zm0 0" fill="#5cd3f8" /><path d="m32 106.519531v234.167969l-18.34375-18.34375-11.3125 11.3125 32 32c1.558594 1.558594 3.609375 2.34375 5.65625 2.34375s4.097656-.785156 5.65625-2.34375l32-32-11.3125-11.3125-18.34375 18.34375v-229.328125c2.625.375 5.28125.640625 8 .640625 30.878906 0 56-25.121094 56-56s-25.121094-56-56-56-56 25.121094-56 56c0 22.28125 13.113281 41.511719 32 50.519531zm24-90.519531c22.054688 0 40 17.945312 40 40s-17.945312 40-40 40-40-17.945312-40-40 17.945312-40 40-40zm0 0" fill="#5cd3f8" /><path d="m224 360c0 4.425781 3.585938 8 8 8h32c4.414062 0 8-3.574219 8-8v-10.886719c10.542969-2.480469 20.496094-6.519531 29.695312-12.097656l4.648438 4.640625c3.128906 3.128906 8.183594 3.128906 11.3125 0l24-24c1.503906-1.496094 2.34375-3.527344 2.34375-5.65625s-.839844-4.160156-2.34375-5.65625l-4.640625-4.640625c5.570313-9.207031 9.625-19.160156 12.097656-29.703125h10.886719c4.414062 0 8-3.574219 8-8v-32c0-4.414062-3.585938-8-8-8h-10.894531c-2.472657-10.449219-6.546875-20.367188-12.160157-29.632812l4.710938-4.710938c3.128906-3.128906 3.128906-8.183594 0-11.3125l-24-24c-3.128906-3.128906-8.183594-3.128906-11.3125 0l-4.710938 4.710938c-9.265624-5.613282-19.183593-9.6875-29.632812-12.160157v-10.894531c0-4.414062-3.585938-8-8-8h-32c-4.414062 0-8 3.585938-8 8v10.886719c-10.542969 2.472656-20.496094 6.519531-29.703125 12.097656l-4.640625-4.640625c-3.128906-3.128906-8.183594-3.128906-11.3125 0l-24 24c-3.128906 3.128906-3.128906 8.183594 0 11.3125l4.640625 4.640625c-5.570313 9.207031-9.625 19.160156-12.097656 29.703125h-10.886719c-4.414062 0-8 3.585938-8 8v32c0 4.425781 3.585938 8 8 8h10.894531c2.472657 10.441406 6.546875 20.359375 12.160157 29.625l-4.710938 4.71875c-3.128906 3.128906-3.128906 8.183594 0 11.3125l24 24c3.128906 3.128906 8.183594 3.128906 11.3125 0l4.710938-4.710938c9.265624 5.613282 19.183593 9.6875 29.632812 12.160157zm-26.136719-39.855469c-3.175781-2.214843-7.496093-1.832031-10.222656.902344l-3.640625 3.640625-12.6875-12.6875 3.640625-3.640625c2.734375-2.734375 3.117187-7.046875.910156-10.222656-7.503906-10.785157-12.390625-22.710938-14.535156-35.464844-.648437-3.847656-3.984375-6.671875-7.886719-6.671875h-9.441406v-16h9.441406c3.902344 0 7.238282-2.824219 7.886719-6.671875 2.167969-12.929687 7.039063-24.886719 14.457031-35.535156 2.207032-3.175781 1.832032-7.488281-.914062-10.226563l-3.558594-3.566406 12.6875-12.6875 3.558594 3.558594c2.746094 2.738281 7.050781 3.128906 10.226562.914062 10.65625-7.417968 22.605469-12.289062 35.535156-14.457031 3.855469-.648437 6.679688-3.984375 6.679688-7.886719v-9.441406h16v9.441406c0 3.902344 2.824219 7.238282 6.671875 7.886719 12.761719 2.144531 24.6875 7.03125 35.464844 14.535156 3.183593 2.207031 7.496093 1.832031 10.222656-.910156l3.640625-3.640625 12.6875 12.6875-3.640625 3.640625c-2.734375 2.734375-3.117187 7.046875-.910156 10.222656 7.503906 10.777344 12.390625 22.703125 14.535156 35.464844.648437 3.847656 3.984375 6.671875 7.886719 6.671875h9.441406v16h-9.441406c-3.902344 0-7.238282 2.824219-7.886719 6.671875-2.167969 12.929687-7.039063 24.886719-14.457031 35.535156-2.214844 3.175781-1.832032 7.488281.90625 10.226563l3.558594 3.566406-12.679688 12.6875-3.566406-3.558594c-2.730469-2.730468-7.050782-3.136718-10.234375-.90625-10.640625 7.417969-22.589844 12.273438-35.527344 14.457032-3.847656.640624-6.671875 3.976562-6.671875 7.878906v9.441406h-16v-9.441406c0-3.902344-2.824219-7.238282-6.671875-7.886719-12.753906-2.144531-24.679687-7.03125-35.464844-14.527344zm0 0" fill="#5cd3f8" /><path d="m320 248c0-39.695312-32.304688-72-72-72s-72 32.304688-72 72c0 39.703125 32.304688 72 72 72s72-32.296875 72-72zm-128 0c0-30.878906 25.121094-56 56-56s56 25.121094 56 56c0 30.871094-25.121094 56-56 56s-56-25.128906-56-56zm0 0" fill="#5cd3f8" /><path d="m248 432c11.054688 0 20.296875-7.550781 23.070312-17.742188 83-11.378906 144.929688-81.722656 144.929688-166.257812 0-76.710938-51.824219-143.625-126.015625-162.703125l-3.984375 15.496094c67.121094 17.261719 114 77.800781 114 147.207031 0 76.144531-55.519531 139.550781-130.105469 150.265625-3.75-8.386719-12.132812-14.265625-21.894531-14.265625-13.230469 0-24 10.769531-24 24s10.769531 24 24 24zm0-32c4.40625 0 8 3.585938 8 8s-3.59375 8-8 8-8-3.585938-8-8 3.59375-8 8-8zm0 0" fill="#5cd3f8" /><path d="m96 248c0-76.207031 55.503906-139.558594 130.105469-150.265625 3.742187 8.386719 12.132812 14.265625 21.894531 14.265625 13.230469 0 24-10.769531 24-24s-10.769531-24-24-24c-11.054688 0-20.304688 7.558594-23.070312 17.753906-83.035157 11.367188-144.929688 81.636719-144.929688 166.246094 0 76.703125 51.816406 143.609375 126 162.710938l3.992188-15.503907c-67.121094-17.269531-113.992188-77.808593-113.992188-147.207031zm152-168c4.40625 0 8 3.59375 8 8s-3.59375 8-8 8-8-3.59375-8-8 3.59375-8 8-8zm0 0" fill="#5cd3f8" /><path d="m162.34375 77.65625 11.3125-11.3125-18.34375-18.34375h229.328125c-.375 2.625-.640625 5.28125-.640625 8 0 30.878906 25.121094 56 56 56s56-25.121094 56-56-25.121094-56-56-56c-22.28125 0-41.511719 13.113281-50.519531 32h-234.167969l18.34375-18.34375-11.3125-11.3125-32 32c-3.128906 3.128906-3.128906 8.183594 0 11.3125zm277.65625-61.65625c22.054688 0 40 17.945312 40 40s-17.945312 40-40 40-40-17.945312-40-40 17.945312-40 40-40zm0 0" fill="#5cd3f8" /><path d="m333.65625 418.34375-11.3125 11.3125 18.34375 18.34375h-229.328125c.375-2.625.640625-5.28125.640625-8 0-30.871094-25.121094-56-56-56s-56 25.128906-56 56 25.121094 56 56 56c22.28125 0 41.511719-13.113281 50.519531-32h234.167969l-18.34375 18.34375 11.3125 11.3125 32-32c3.128906-3.128906 3.128906-8.183594 0-11.3125zm-277.65625 61.65625c-22.054688 0-40-17.945312-40-40s17.945312-40 40-40 40 17.945312 40 40-17.945312 40-40 40zm0 0" fill="#5cd3f8" /></symbol><symbol viewBox="0 0 48 48" id="icon-search"><defs><path id="icon-search_r022a" d="M1285.302 2014.72a.739.739 0 0 1-1.035.165l-8.956-6.56a.752.752 0 0 1-.164-1.044.737.737 0 0 1 1.035-.166l8.956 6.56c.33.243.404.71.164 1.045zm-22.839-3.778l-10.93 1.75a.743.743 0 0 1-.848-.621.747.747 0 0 1 .615-.855l10.93-1.75a.742.742 0 0 1 .849.62.747.747 0 0 1-.616.856zm30.393 1.426l-11.62 16.144a9.5 9.5 0 0 1-2.231 6.924l1.847 1.864.594-.6a.738.738 0 0 1 1.048 0l6.708 6.767a.751.751 0 0 1 0 1.058l-2.236 2.256a.735.735 0 0 1-1.048 0l-6.708-6.768a.752.752 0 0 1 0-1.057l.593-.599-1.846-1.863a9.432 9.432 0 0 1-1.435 1.02v2.108a.744.744 0 0 1-.741.747h-20.554a.744.744 0 0 1-.741-.747v-8.023l-4.665.747a.737.737 0 0 1-.552-.133.748.748 0 0 1-.296-.488l-3.965-25.205a.747.747 0 0 1 .616-.856l20.3-3.25a.736.736 0 0 1 .552.134c.159.116.266.291.296.487l.999 6.35 7.253-10.078a.74.74 0 0 1 1.036-.166l16.632 12.183c.33.242.404.71.164 1.044zm-12.074 27.117l5.66 5.71 1.187-1.198-5.66-5.71zm-25.555-26.132h9.687l1.625-2.258-1.114-7.087-18.836 3.016 3.732 23.728 4.165-.667v-4.946l-.971.156a.743.743 0 0 1-.848-.621.747.747 0 0 1 .615-.856l1.204-.193v-4.946l-1.962.314a.743.743 0 0 1-.848-.621.747.747 0 0 1 .615-.855l2.195-.351v-3.065c0-.413.332-.748.74-.748zm19.813 25.52v-.664a9.29 9.29 0 0 1-3.212.566c-3.409 0-6.504-1.823-8.187-4.785h-3.67a.745.745 0 0 1-.742-.748c0-.413.332-.748.741-.748h2.982a9.513 9.513 0 0 1-.56-3.24c0-.552.047-1.102.14-1.645h-2.562a.745.745 0 0 1-.741-.748c0-.412.332-.747.741-.747h2.949a9.454 9.454 0 0 1 1.675-2.973 9.484 9.484 0 0 1 2.156-1.912h-6.78a.745.745 0 0 1-.741-.748c0-.412.332-.747.741-.747h11.068c.059 0 .117.008.172.021a9.279 9.279 0 0 1 3.83.545v-5.451h-1.347-17.725v24.025zm4.743-9.619a8.256 8.256 0 0 0-.047-.873 7.998 7.998 0 0 0-4.292-6.276 7.812 7.812 0 0 0-3.616-.876 7.913 7.913 0 0 0-6.098 2.873 7.978 7.978 0 0 0-1.556 2.963 8.1 8.1 0 0 0-.3 2.19c0 1.284.291 2.51.866 3.646 1.369 2.7 4.085 4.378 7.088 4.378 1.274 0 2.49-.294 3.616-.875a7.98 7.98 0 0 0 2.009-1.475 8.009 8.009 0 0 0 2.33-5.675zm11.438-17.16l-15.433-11.304-7.869 10.933-1.173 1.63h4.71a.752.752 0 0 1-.025-.91.737.737 0 0 1 1.035-.165l1.468 1.076h1.847c.41 0 .741.334.741.747v1.148l4.9 3.59c.33.242.405.71.164 1.043a.739.739 0 0 1-1.035.166l-4.029-2.951v3.899a9.473 9.473 0 0 1 4.34 5.493zm-13.118 17.16c0 3.49-2.815 6.33-6.275 6.33-3.46 0-6.275-2.84-6.275-6.33s2.815-6.33 6.275-6.33c3.46 0 6.275 2.84 6.275 6.33zm-1.482 0c0-2.666-2.15-4.835-4.793-4.835-2.642 0-4.792 2.17-4.792 4.835 0 2.666 2.15 4.835 4.792 4.835 2.643 0 4.793-2.169 4.793-4.835zm-2.688.928l-1.976 1.993a.736.736 0 0 1-1.048 0 .753.753 0 0 1 0-1.057l1.976-1.994a.737.737 0 0 1 1.048 0c.29.292.29.765 0 1.058zm-.79-3.19l-2.174 2.193a.735.735 0 0 1-1.048 0 .752.752 0 0 1 0-1.058l2.174-2.193a.737.737 0 0 1 1.048 0c.29.292.29.765 0 1.057z" /></defs><g><g transform="translate(-1245 -1999)"><use fill="#3bc8f5" xlink:href="#icon-search_r022a" /></g></g></symbol><symbol viewBox="0 0 48 48" id="icon-stat"><defs><path id="icon-stat_dy2sa" d="M333 2019.508v26.554c0 .518-.42.938-.938.938h-44.25a2.816 2.816 0 0 1-2.812-2.813v-42.375a2.816 2.816 0 0 1 2.812-2.812h25.123c.249 0 .487.098.663.274l9 9a.937.937 0 0 1 .274.664v12.468a.937.937 0 0 1-1.875 0v-11.531h-6.187a2.816 2.816 0 0 1-2.812-2.813v-6.187h-24.186a.939.939 0 0 0-.937.937v42.375c0 .517.42.938.937.938h8.063v-7.465c0-.518.42-.938.937-.938h6c.518 0 .938.42.938.938v7.465h1.875v-12.844c0-.518.42-.937.937-.937h6c.518 0 .938.42.938.937v12.844h1.875v-19.407c0-.517.42-.937.937-.937h6c.518 0 .938.42.938.937v19.407h1.875v-13.852a.938.938 0 1 1 1.875 0v13.852h4.125v-24.68H327v3.797a.938.938 0 0 1-1.875 0v-4.734c0-.518.42-.938.937-.938h6c.518 0 .938.42.938.938zm-19.127-12.446c0 .517.42.938.937.938h4.862l-5.8-5.8zm-11.998 31.535h-4.125v6.528h4.125zm9.75-5.379H307.5v11.907h4.125zm9.75-6.562h-4.125v18.469h4.125zm5.625.927c0 .247-.1.488-.275.663a.945.945 0 0 1-.663.275.945.945 0 0 1-.662-.275.945.945 0 0 1-.275-.663.941.941 0 0 1 1.6-.663.945.945 0 0 1 .275.663zm-17.156-12.256c0 .517-.42.937-.938.937h-1.686c-.469 4.316-4.134 7.685-8.572 7.685-4.755 0-8.623-3.868-8.623-8.622 0-4.438 3.37-8.104 7.685-8.573v-1.686c0-.518.42-.938.938-.938 6.173 0 11.196 5.023 11.196 11.197zm-4.514.937h-6.682a.937.937 0 0 1-.938-.937v-6.683c-3.278.458-5.81 3.28-5.81 6.683a6.755 6.755 0 0 0 6.748 6.747c3.402 0 6.225-2.532 6.682-5.81zm2.592-1.875c-.441-4.392-3.944-7.896-8.337-8.337v8.337zm1.922 13.134c0 .518-.42.938-.938.938H291a.938.938 0 0 1 0-1.875h17.906c.518 0 .938.42.938.937zm-11.907 4.523c0 .518-.42.938-.937.938h-6a.938.938 0 0 1 0-1.875h6c.518 0 .937.42.937.937zm4.695 0c0 .247-.1.49-.274.663a.944.944 0 0 1-.663.275.942.942 0 0 1-.938-.938.94.94 0 0 1 .938-.937c.246 0 .488.1.663.275a.944.944 0 0 1 .274.662z" /></defs><g><g transform="translate(-285 -1999)"><use fill="#3bc8f5" xlink:href="#icon-stat_dy2sa" /></g></g></symbol><symbol viewBox="0 0 75 75" id="icon-support"><defs><path id="icon-support_kimsa" d="M1073.583 3208.458c2.058 2.544 2.058 6.3 0 8.966-2.421 3.15-7.022 3.755-10.17 1.211a37.666 37.666 0 0 1-41.89 0c-2.542 2.06-6.296 2.06-8.96 0-3.147-2.423-3.752-7.027-1.21-10.177a37.738 37.738 0 0 1 0-41.92c-2.058-2.545-2.058-6.301 0-8.967 2.422-3.15 7.022-3.756 10.17-1.211a37.665 37.665 0 0 1 41.89 0c2.543-2.06 6.296-2.06 8.96 0 3.147 2.423 3.753 7.027 1.21 10.177 4.238 6.18 6.417 13.449 6.417 20.96 0 7.512-2.18 14.782-6.417 20.96zm-10.533-46.404c0 2.665 2.18 4.847 4.843 4.847s4.843-2.181 4.843-4.847c0-2.665-2.18-4.846-4.843-4.846-2.664 0-4.843 2.18-4.843 4.846zm-50.85 0c0 2.665 2.18 4.847 4.843 4.847 2.664 0 4.843-2.181 4.843-4.847 0-2.665-2.18-4.846-4.843-4.846s-4.842 2.18-4.842 4.846zm9.686 50.887c0-2.666-2.18-4.847-4.843-4.847s-4.842 2.181-4.842 4.847c0 2.665 2.179 4.846 4.842 4.846 2.664 0 4.843-2.18 4.843-4.846zm50.85 0c0-2.666-2.18-4.847-4.843-4.847-2.664 0-4.843 2.181-4.843 4.847 0 2.665 2.18 4.846 4.843 4.846s4.843-2.18 4.843-4.846zm-.848-44.708c-2.3 1.575-5.327 1.575-7.748 0a7.261 7.261 0 0 1-2.18-10.056 34.97 34.97 0 0 0-38.621 0c1.574 2.302 1.574 5.331 0 7.754a7.249 7.249 0 0 1-10.049 2.181 35.037 35.037 0 0 0 0 38.65c2.3-1.576 5.327-1.576 7.749 0a7.26 7.26 0 0 1 2.179 10.056c11.623 7.754 26.878 7.754 38.621 0-1.574-2.302-1.574-5.331 0-7.754a7.25 7.25 0 0 1 10.05-2.181 35.036 35.036 0 0 0 0-38.65zm-31.841 20.476h-7.265v4.846h8.475v2.423h-9.685c-.727 0-1.21-.484-1.21-1.21v-7.27c0-.728.483-1.212 1.21-1.212h7.264v-4.847h-8.475v-2.423h9.686c.726 0 1.21.485 1.21 1.212v7.27c0 .726-.484 1.211-1.21 1.211zm13.317-9.693h2.422v16.962h-2.422v-7.269h-8.474c-.727 0-1.211-.485-1.211-1.212v-8.48h2.421v7.269h7.264zm-5.811 33.44c-13.802 2.787-27.24-6.058-30.025-19.87l2.421-.484c2.058 10.177 10.654 17.689 20.945 18.416 12.592.727 23.488-8.603 24.335-21.203.848-12.6-8.717-23.505-21.308-24.353-12.591-.848-23.488 8.723-24.335 21.324l3.995-3.271 1.574 1.938-6.053 4.846a1.272 1.272 0 0 1-1.574 0l-6.054-4.846 1.574-1.938 4.117 3.271c.605-13.57 11.743-24.232 25.303-24.232 12.107 0 22.52 8.481 24.94 20.355 2.785 13.812-6.053 27.26-19.855 30.047z" /></defs><g><g transform="translate(-1005 -3150)"><use fill="#3bc8f5" xlink:href="#icon-support_kimsa" /></g></g></symbol><symbol viewBox="0 -15 966.25045 966" id="icon-task">
<g id="icon-task_surface1">
<path d="M 77.921875 841.703125 L 483.125 841.703125 L 483.125 810.527344 L 77.921875 810.527344 C 52.101562 810.527344 31.167969 789.59375 31.167969 763.773438 L 31.167969 78.046875 C 31.167969 52.21875 52.101562 31.292969 77.921875 31.292969 L 763.648438 31.292969 C 789.480469 31.292969 810.402344 52.21875 810.402344 78.046875 L 810.402344 436.492188 L 841.578125 436.492188 L 841.578125 78.046875 C 841.527344 35.03125 806.667969 0.175781 763.648438 0.125 L 77.921875 0.125 C 34.914062 0.175781 0.0546875 35.03125 0 78.046875 L 0 763.773438 C 0.0546875 806.789062 34.914062 841.644531 77.921875 841.703125 Z M 77.921875 841.703125 " style=" fill-rule:nonzero;fill-opacity:1;" stroke="#5cd3f8" fill="#5cd3f8" />
<path d="M 62.34375 62.46875 L 93.507812 62.46875 L 93.507812 93.632812 L 62.34375 93.632812 Z M 62.34375 62.46875 " style=" fill-rule:nonzero;fill-opacity:1;" stroke="#5cd3f8" fill="#5cd3f8" />
<path d="M 124.675781 62.46875 L 155.851562 62.46875 L 155.851562 93.632812 L 124.675781 93.632812 Z M 124.675781 62.46875 " style=" fill-rule:nonzero;fill-opacity:1;" stroke="#5cd3f8" fill="#5cd3f8" />
<path d="M 187.015625 62.46875 L 218.1875 62.46875 L 218.1875 93.632812 L 187.015625 93.632812 Z M 187.015625 62.46875 " style=" fill-rule:nonzero;fill-opacity:1;" stroke="#5cd3f8" fill="#5cd3f8" />
<path d="M 62.34375 124.800781 L 779.234375 124.800781 L 779.234375 155.976562 L 62.34375 155.976562 Z M 62.34375 124.800781 " style=" fill-rule:nonzero;fill-opacity:1;" stroke="#5cd3f8" fill="#5cd3f8" />
<path d="M 222.753906 191.707031 L 183.167969 231.292969 C 149.707031 209.140625 104.898438 215.9375 79.503906 247.015625 C 54.113281 278.089844 56.390625 323.355469 84.765625 351.726562 C 113.136719 380.109375 158.40625 382.386719 189.484375 356.992188 C 220.558594 331.601562 227.359375 286.785156 205.203125 253.332031 L 244.785156 213.746094 Z M 140.257812 342.984375 C 114.441406 342.984375 93.507812 322.054688 93.507812 296.234375 C 93.507812 270.410156 114.441406 249.484375 140.257812 249.484375 C 147.210938 249.507812 154.050781 251.101562 160.289062 254.152344 L 129.246094 285.199219 L 151.277344 307.238281 L 182.34375 276.210938 C 185.394531 282.445312 186.992188 289.285156 187.015625 296.234375 C 187.015625 322.054688 166.089844 342.984375 140.257812 342.984375 Z M 140.257812 342.984375 " style=" fill-rule:nonzero;fill-opacity:1;" stroke="#5cd3f8" fill="#5cd3f8" />
<path d="M 264.941406 249.484375 L 529.875 249.484375 L 529.875 280.648438 L 264.941406 280.648438 Z M 264.941406 249.484375 " style=" fill-rule:nonzero;fill-opacity:1;" stroke="#5cd3f8" fill="#5cd3f8" />
<path d="M 264.941406 311.820312 L 374.03125 311.820312 L 374.03125 342.984375 L 264.941406 342.984375 Z M 264.941406 311.820312 " style=" fill-rule:nonzero;fill-opacity:1;" stroke="#5cd3f8" fill="#5cd3f8" />
<path d="M 405.203125 311.820312 L 623.382812 311.820312 L 623.382812 342.984375 L 405.203125 342.984375 Z M 405.203125 311.820312 " style=" fill-rule:nonzero;fill-opacity:1;" stroke="#5cd3f8" fill="#5cd3f8" />
<path d="M 561.046875 249.484375 L 716.894531 249.484375 L 716.894531 280.648438 L 561.046875 280.648438 Z M 561.046875 249.484375 " style=" fill-rule:nonzero;fill-opacity:1;" stroke="#5cd3f8" fill="#5cd3f8" />
<path d="M 222.753906 378.722656 L 183.167969 418.308594 C 149.707031 396.15625 104.898438 402.953125 79.503906 434.03125 C 54.113281 465.109375 56.390625 510.371094 84.765625 538.75 C 113.136719 567.125 158.40625 569.402344 189.484375 544.007812 C 220.558594 518.613281 227.359375 473.8125 205.203125 440.347656 L 244.785156 400.761719 Z M 140.257812 530.003906 C 114.441406 530.003906 93.507812 509.070312 93.507812 483.25 C 93.507812 457.425781 114.441406 436.492188 140.257812 436.492188 C 147.210938 436.519531 154.050781 438.117188 160.289062 441.167969 L 129.246094 472.222656 L 151.277344 494.253906 L 182.34375 463.222656 C 185.394531 469.460938 186.992188 476.300781 187.015625 483.25 C 187.015625 509.070312 166.089844 530.003906 140.257812 530.003906 Z M 140.257812 530.003906 " style=" fill-rule:nonzero;fill-opacity:1;" stroke="#5cd3f8" fill="#5cd3f8" />
<path d="M 264.941406 436.492188 L 529.875 436.492188 L 529.875 467.664062 L 264.941406 467.664062 Z M 264.941406 436.492188 " style=" fill-rule:nonzero;fill-opacity:1;" stroke="#5cd3f8" fill="#5cd3f8" />
<path d="M 264.941406 498.835938 L 374.03125 498.835938 L 374.03125 530.003906 L 264.941406 530.003906 Z M 264.941406 498.835938 " style=" fill-rule:nonzero;fill-opacity:1;" stroke="#5cd3f8" fill="#5cd3f8" />
<path d="M 405.203125 498.835938 L 529.875 498.835938 L 529.875 530.003906 L 405.203125 530.003906 Z M 405.203125 498.835938 " style=" fill-rule:nonzero;fill-opacity:1;" stroke="#5cd3f8" fill="#5cd3f8" />
<path d="M 561.046875 436.492188 L 623.382812 436.492188 L 623.382812 467.664062 L 561.046875 467.664062 Z M 561.046875 436.492188 " style=" fill-rule:nonzero;fill-opacity:1;" stroke="#5cd3f8" fill="#5cd3f8" />
<path d="M 222.753906 565.738281 L 183.167969 605.324219 C 149.707031 583.171875 104.898438 589.96875 79.503906 621.046875 C 54.113281 652.125 56.390625 697.386719 84.765625 725.765625 C 113.136719 754.144531 158.40625 756.414062 189.484375 731.023438 C 220.558594 705.628906 227.359375 660.824219 205.203125 627.359375 L 244.785156 587.777344 Z M 140.257812 717.019531 C 114.441406 717.019531 93.507812 696.085938 93.507812 670.265625 C 93.507812 644.441406 114.441406 623.511719 140.257812 623.511719 C 147.210938 623.535156 154.050781 625.128906 160.289062 628.183594 L 129.246094 659.238281 L 151.277344 681.269531 L 182.34375 650.238281 C 185.394531 656.476562 186.992188 663.320312 187.015625 670.265625 C 187.015625 696.085938 166.089844 717.019531 140.257812 717.019531 Z M 140.257812 717.019531 " style=" fill-rule:nonzero;fill-opacity:1;" stroke="#5cd3f8" fill="#5cd3f8" />
<path d="M 264.941406 623.511719 L 467.539062 623.511719 L 467.539062 654.6875 L 264.941406 654.6875 Z M 264.941406 623.511719 " style=" fill-rule:nonzero;fill-opacity:1;" stroke="#5cd3f8" fill="#5cd3f8" />
<path d="M 264.941406 685.851562 L 374.03125 685.851562 L 374.03125 717.019531 L 264.941406 717.019531 Z M 264.941406 685.851562 " style=" fill-rule:nonzero;fill-opacity:1;" stroke="#5cd3f8" fill="#5cd3f8" />
<path d="M 405.203125 685.851562 L 467.539062 685.851562 L 467.539062 717.019531 L 405.203125 717.019531 Z M 405.203125 685.851562 " style=" fill-rule:nonzero;fill-opacity:1;" stroke="#5cd3f8" fill="#5cd3f8" />
<path d="M 732.484375 935.210938 C 861.597656 935.210938 966.25 830.539062 966.25 701.4375 C 966.25 572.324219 861.597656 467.664062 732.484375 467.664062 C 603.371094 467.664062 498.710938 572.324219 498.710938 701.4375 C 498.863281 830.480469 603.433594 935.054688 732.484375 935.210938 Z M 732.484375 498.835938 C 844.371094 498.835938 935.085938 589.542969 935.085938 701.4375 C 935.085938 813.332031 844.371094 904.035156 732.484375 904.035156 C 620.585938 904.035156 529.875 813.332031 529.875 701.4375 C 530.007812 589.597656 620.636719 498.960938 732.484375 498.835938 Z M 732.484375 498.835938 " style=" fill-rule:nonzero;fill-opacity:1;" stroke="#5cd3f8" fill="#5cd3f8" />
<path d="M 637.417969 710.050781 L 609.519531 723.980469 L 640.691406 786.320312 C 642.925781 790.804688 647.191406 793.941406 652.140625 794.742188 C 652.945312 794.867188 653.75 794.933594 654.558594 794.945312 C 658.6875 794.945312 662.652344 793.300781 665.582031 790.378906 L 852.589844 603.363281 L 830.558594 581.324219 L 658.824219 753.050781 Z M 637.417969 710.050781 " style=" fill-rule:nonzero;fill-opacity:1;" stroke="#5cd3f8" fill="#5cd3f8" />
</g>
</symbol><symbol viewBox="0 0 48 48" id="icon-time"><defs><path id="icon-time_jyw5a" d="M1288.875 2266.25c0 7.237-5.888 13.125-13.125 13.125a13.1 13.1 0 0 1-9.975-4.605v2.23a6.69 6.69 0 0 1-2.066 4.837h1.017c4.631 0 8.399 3.768 8.399 8.4v5.825c0 .518-.42.938-.938.938h-26.25a.937.937 0 0 1-.937-.938v-5.825c0-4.632 3.768-8.4 8.399-8.4h1.017a6.69 6.69 0 0 1-2.066-4.837v-3.843a6.72 6.72 0 0 1 6.712-6.713 6.67 6.67 0 0 1 3.624 1.066c-.04-.414-.061-.835-.061-1.26 0-7.237 5.888-13.125 13.125-13.125s13.125 5.888 13.125 13.125zm-34.65 7.36h1.886a5.394 5.394 0 0 0 4.145-1.935.937.937 0 0 1 1.193-.206l2.445 1.436a4.844 4.844 0 0 0-4.831-4.586 4.843 4.843 0 0 0-4.838 4.838zm9.042 15.022l-3.267-2.102v2.036a.937.937 0 1 1-1.875 0v-2.036l-3.267 2.102a.938.938 0 0 1-1.445-.788v-4.132h-.014a6.531 6.531 0 0 0-6.524 6.525v4.888h24.375v-4.888a6.531 6.531 0 0 0-6.524-6.525h-.04c.017.07.026.142.026.216v3.916a.938.938 0 0 1-1.445.788zm-4.712-4.608a.936.936 0 0 1 1.015 0l3.267 2.102v-2.198c0-.074.01-.146.026-.216h-7.575v2.414zm5.345-7.024v-1.916l-2.755-1.619a7.263 7.263 0 0 1-5.034 2.02h-1.886V2277a4.843 4.843 0 0 0 4.838 4.837 4.843 4.843 0 0 0 4.837-4.837zm23.1-10.75c0-6.203-5.047-11.25-11.25-11.25s-11.25 5.047-11.25 11.25 5.047 11.25 11.25 11.25 11.25-5.047 11.25-11.25zm-27 25.734c0 .247-.1.488-.275.663a.944.944 0 0 1-.662.275.944.944 0 0 1-.663-.275.945.945 0 0 1-.275-.663c0-.246.1-.488.275-.663a.944.944 0 0 1 .662-.274c.247 0 .489.1.663.274a.945.945 0 0 1 .275.663zm9.328-.984c0 .518-.42.937-.937.937h-4.22a.937.937 0 1 1 0-1.875h4.22c.517 0 .937.42.937.938zm23.672-24.75c0 9.511-7.738 17.25-17.25 17.25a.938.938 0 0 1 0-1.875c8.478 0 15.375-6.897 15.375-15.375s-6.897-15.375-15.375-15.375c-7.556 0-13.935 5.4-15.168 12.843a.938.938 0 0 1-1.85-.307A17.26 17.26 0 0 1 1275.75 2249c9.512 0 17.25 7.738 17.25 17.25zm-19.41 16.206a.938.938 0 0 1-1.102.736.939.939 0 0 1 .354-1.841l.013.002a.937.937 0 0 1 .736 1.103zm7.214-19.919l-4.376 4.376a.935.935 0 0 1-1.325 0l-2.618-2.617a.938.938 0 1 1 1.326-1.326l1.954 1.954 3.713-3.712a.938.938 0 0 1 1.326 1.325zm-4.117-5.467v.664a.938.938 0 1 1-1.875 0v-.664a.938.938 0 0 1 1.875 0zm0 17.695v.665a.937.937 0 0 1-1.875 0v-.665a.938.938 0 1 1 1.875 0zm9.18-8.515c0 .518-.42.937-.937.937h-.665a.938.938 0 0 1 0-1.875h.665c.517 0 .937.42.937.938zm-17.695 0c0 .518-.42.937-.938.937h-.664a.938.938 0 0 1 0-1.875h.665c.517 0 .937.42.937.938z" /></defs><g><g transform="translate(-1245 -2249)"><use fill="#3bc8f5" xlink:href="#icon-time_jyw5a" /></g></g></symbol><symbol viewBox="0 0 504.4 504.4" id="icon-twitter">
<g>
	<g>
		<path d="M377.6,0.2H126.4C56.8,0.2,0,57,0,126.6v251.6c0,69.2,56.8,126,126.4,126H378c69.6,0,126.4-56.8,126.4-126.4V126.6
			C504,57,447.2,0.2,377.6,0.2z M377.2,189c0,2.8,0,5.6,0,8.4c0,84-64.8,180.8-183.6,180.8c-36.4,0-70.4-10.4-98.8-28.4
			c5.2,0.4,10,0.8,15.2,0.8c30.4,0,58-10,80-27.2c-28.4-0.4-52-18.8-60.4-44c4,0.8,8,1.2,12,1.2c6,0,12-0.8,17.2-2.4
			c-28.8-6-50.8-31.6-50.8-62.4V215c8,4.8,18.4,7.6,28.8,8c-17.2-11.2-28.8-30.8-28.8-52.8c0-11.6,3.2-22.4,8.8-32
			c32,38.4,79.2,63.6,132.8,66.4c-1.2-4.8-1.6-9.6-1.6-14.4c0-35.2,28.8-63.6,64.4-63.6c18.4,0,35.2,7.6,47.2,20
			c14.8-2.8,28.4-8,40.8-15.6c-4.8,14.8-15.2,27.2-28.4,35.2c13.2-1.6,25.6-4.8,37.2-10C400.4,169,389.6,180.2,377.2,189z" />
	</g>
</g>
<g>
</g>
<g>
</g>
<g>
</g>
<g>
</g>
<g>
</g>
<g>
</g>
<g>
</g>
<g>
</g>
<g>
</g>
<g>
</g>
<g>
</g>
<g>
</g>
<g>
</g>
<g>
</g>
<g>
</g>
</symbol><symbol viewBox="0 0 30 30" id="icon-vk"><defs><path id="icon-vk_2caoa" d="M1565.772 6170.23a93.26 93.26 0 0 0-13.563 0c-3.902.332-7.65 4.08-7.98 7.982a93.21 93.21 0 0 0 0 13.563c.33 3.902 4.078 7.65 7.98 7.98 4.52.33 9.042.33 13.563 0 3.902-.33 7.65-4.078 7.98-7.98.33-4.521.33-9.043 0-13.563-.33-3.902-4.078-7.65-7.98-7.982z" /><path id="icon-vk_2caob" d="M1557.602 6188.659v-3h1.4c1.06 0 2.1.12 2.1 1.46 0 1.44-1.34 1.54-2.46 1.54zm0-5.062v-2.54h.9c.88 0 1.84.08 1.84 1.2 0 1.24-.94 1.34-1.92 1.34zm4.14.62c1.06-.44 1.66-1.44 1.66-2.58 0-2.56-2.44-2.78-4.42-2.78h-4.641v12.002h5.061c2.4 0 4.801-.9 4.801-3.68 0-1.58-.94-2.581-2.46-2.901z" /></defs><g><g transform="translate(-1544 -6170)"><use fill="currentColor" xlink:href="#icon-vk_2caoa" /></g><g transform="translate(-1544 -6170)"><use fill="#fff" xlink:href="#icon-vk_2caob" /></g></g></symbol><symbol viewBox="0 0 74 74" id="icon-work"><defs><path id="icon-work_a0e1a" d="M578.059 3421.07c.662 0 1.199.534 1.199 1.192 0 .658-.537 1.192-1.2 1.192a1.195 1.195 0 0 1-1.198-1.192c0-.658.537-1.192 1.199-1.192zm-6.883 11.353c-.011.01.01-.012 0 0zm-3.34-3.32c.008-.007-.009.01 0 0zm31.164-6.505v3.348c0 1.642-1.345 2.98-2.998 2.98h-1.464a19.163 19.163 0 0 1-2.241 5.374l1.036 1.03c.567.563.878 1.311.878 2.107a2.95 2.95 0 0 1-.878 2.107l-2.381 2.367a2.988 2.988 0 0 1-2.12.873c-.8 0-1.553-.31-2.12-.873l-1.036-1.03a19.398 19.398 0 0 1-5.407 2.227v1.456c0 1.643-1.345 2.98-2.998 2.98h-3.368c-1.653 0-2.998-1.337-2.998-2.98v-1.456a19.44 19.44 0 0 1-5.258-2.139l-13.187 13.108a1.09 1.09 0 0 1-1.535 0 1.074 1.074 0 0 1 0-1.526l20.25-20.124a1.09 1.09 0 0 1 1.208-.223c3.192 1.408 6.996.705 9.465-1.75a8.433 8.433 0 0 0 2.382-7.32l-4.768 4.74c-.314.312-.79.402-1.198.227l-3.92-1.686a1.081 1.081 0 0 1-.572-.575l-1.59-3.792v-.004l-.005-.01-.004-.009a.391.391 0 0 0-.003-.01l-.004-.009-.004-.011c0-.003-.002-.005-.003-.008 0-.004-.002-.008-.004-.012l-.002-.007-.004-.012a.565.565 0 0 1-.006-.02l-.002-.006-.004-.014-.001-.006-.004-.013a.075.075 0 0 0-.001-.006l-.004-.014v-.005l-.004-.015-.001-.005-.003-.014-.001-.006-.003-.014v-.006l-.003-.014v-.005l-.003-.014v-.007l-.002-.014v-.005l-.002-.014-.001-.006-.001-.015v-.005l-.002-.014v-.006-.014l-.001-.006v-.014-.005-.014-.007-.013-.006-.014-.007-.012-.008l.001-.012.001-.008.001-.012v-.007l.002-.013v-.006a.395.395 0 0 1 .003-.02l.001-.013.002-.008.001-.011.002-.008.002-.012.001-.008.002-.011.002-.009.002-.01a.17.17 0 0 1 .002-.008l.003-.012c0-.003 0-.005.002-.008l.002-.011.003-.008.002-.011.003-.01.003-.009.002-.01.003-.01.003-.007a.194.194 0 0 1 .004-.011l.002-.007a.22.22 0 0 1 .004-.012l.003-.007.004-.011.002-.008.005-.011.003-.009.004-.009.004-.01c.002-.002.003-.006.004-.009l.003-.007.005-.01.004-.009.005-.01.004-.007.005-.011.003-.006.006-.012a.28.28 0 0 1 .004-.007l.005-.01.005-.008.006-.01c0-.002.002-.004.004-.006l.006-.01.004-.007.006-.011.005-.007.006-.01.005-.007.006-.01.005-.007a.222.222 0 0 1 .007-.009l.005-.007a.232.232 0 0 1 .007-.01l.004-.005.008-.01.005-.007.008-.01a.164.164 0 0 0 .013-.016l.007-.009.005-.006.023-.025a.09.09 0 0 1 .005-.005l.003-.004a.834.834 0 0 1 .025-.026l4.764-4.735.004-.003a8.548 8.548 0 0 0-7.365 2.367c-2.47 2.454-3.176 6.235-1.76 9.409.182.407.093.884-.224 1.2l-27.503 27.337a1.091 1.091 0 0 1-1.207.223c-3.193-1.408-6.997-.706-9.466 1.749a8.434 8.434 0 0 0-2.381 7.32l4.753-4.724c.31-.308.775-.4 1.18-.235l3.829 1.566c.263.107.474.313.585.574l1.681 3.91c.174.406.083.876-.23 1.187l-4.753 4.725a8.55 8.55 0 0 0 7.364-2.368c2.47-2.453 3.176-6.234 1.76-9.408a1.074 1.074 0 0 1 .225-1.2l4.181-4.157a1.09 1.09 0 0 1 1.535 0 1.074 1.074 0 0 1 0 1.526l-3.675 3.653c1.386 3.829.43 8.21-2.49 11.112a10.718 10.718 0 0 1-7.556 3.106 10.72 10.72 0 0 1-3.824-.705 1.074 1.074 0 0 1-.379-1.77l5.558-5.523-1.219-2.834-2.749-1.125-5.565 5.532a1.09 1.09 0 0 1-1.78-.377 10.58 10.58 0 0 1 2.415-11.31c2.92-2.903 7.328-3.854 11.18-2.476l19.815-19.696-.259-.441a19.191 19.191 0 0 1-2.225-5.35h-1.465c-1.653 0-2.998-1.336-2.998-2.98v-3.347c0-1.643 1.345-2.98 2.998-2.98h1.465a19.15 19.15 0 0 1 2.24-5.374l-1.036-1.03a2.97 2.97 0 0 1 0-4.214l2.382-2.368a3.015 3.015 0 0 1 4.239 0l1.037 1.031a19.39 19.39 0 0 1 5.406-2.227v-1.457c0-1.642 1.345-2.98 2.998-2.98h3.368c1.653 0 2.998 1.338 2.998 2.98v1.457a19.406 19.406 0 0 1 5.407 2.227l1.037-1.03a3.014 3.014 0 0 1 4.24 0l2.38 2.367a2.97 2.97 0 0 1 0 4.214l-1.036 1.03a19.157 19.157 0 0 1 2.241 5.374h1.465c1.653 0 2.998 1.337 2.998 2.98zm-17.823.515l-.917-3.04-3.058-.912-2.73 2.715 1.135 2.633 2.854 1.303 2.198-2.184zm15.652 2.833v-3.348a.825.825 0 0 0-.827-.822h-2.015c-.692 0-1.3-.488-1.446-1.162a17.031 17.031 0 0 0-2.364-5.67 1.473 1.473 0 0 1 .196-1.839l1.426-1.417a.82.82 0 0 0 0-1.162l-2.382-2.368a.831.831 0 0 0-1.17 0l-1.426 1.418a1.496 1.496 0 0 1-1.85.194 17.236 17.236 0 0 0-5.704-2.35 1.483 1.483 0 0 1-1.169-1.437v-2.004a.825.825 0 0 0-.827-.822h-3.368a.825.825 0 0 0-.827.822v2.005c0 .686-.492 1.29-1.17 1.436a17.256 17.256 0 0 0-5.704 2.35 1.496 1.496 0 0 1-1.85-.194l-1.426-1.417a.831.831 0 0 0-1.169 0l-2.382 2.367a.82.82 0 0 0 0 1.162l1.426 1.418c.49.485.572 1.258.196 1.838a17.033 17.033 0 0 0-2.364 5.67 1.486 1.486 0 0 1-1.446 1.163h-2.016a.825.825 0 0 0-.827.821v3.349c0 .453.371.821.827.821h2.016c.691 0 1.3.49 1.446 1.163.4 1.84 1.097 3.591 2.074 5.208l2.035-2.023a14.394 14.394 0 0 1-1.727-6.844c0-7.986 6.537-14.484 14.572-14.484 7.304 0 13.516 5.422 14.45 12.612a1.08 1.08 0 0 1-.936 1.208 1.084 1.084 0 0 1-1.216-.932c-.795-6.117-6.082-10.73-12.298-10.73-6.838 0-12.401 5.53-12.401 12.326 0 1.821.402 3.608 1.173 5.238l1.436-1.429c-1.386-3.828-.43-8.209 2.49-11.111a10.738 10.738 0 0 1 11.38-2.401 1.074 1.074 0 0 1 .379 1.77l-1.097 1.09 2.497.745c.35.104.623.376.728.723l.75 2.483 1.096-1.09c.26-.259.634-.369.994-.293.359.076.655.328.787.669a10.58 10.58 0 0 1-2.416 11.31c-2.92 2.904-7.327 3.854-11.179 2.476l-1.26 1.253c1.468.588 3.049.894 4.643.894 5.92 0 11.039-4.186 12.17-9.952a1.084 1.084 0 0 1 1.273-.853c.589.114.973.68.858 1.265-1.33 6.778-7.345 11.697-14.301 11.697-2.178 0-4.336-.487-6.289-1.415l-2.06 2.048a17.253 17.253 0 0 0 4.668 1.735c.677.146 1.17.75 1.17 1.437v2.004c0 .453.37.822.826.822h3.368a.825.825 0 0 0 .827-.822v-2.004c0-.687.492-1.291 1.17-1.437a17.241 17.241 0 0 0 5.704-2.35 1.496 1.496 0 0 1 1.85.195l1.426 1.417a.83.83 0 0 0 1.17 0l2.38-2.367a.814.814 0 0 0 .243-.581.814.814 0 0 0-.242-.581l-1.426-1.418a1.473 1.473 0 0 1-.196-1.838 17.03 17.03 0 0 0 2.365-5.67 1.486 1.486 0 0 1 1.445-1.163h2.016a.825.825 0 0 0 .827-.822zm-48.119-1.959v2.661c0 .893-.73 1.619-1.628 1.619h-.608a8.87 8.87 0 0 1-.405.972l.43.427a1.614 1.614 0 0 1 0 2.289l-1.893 1.882a1.623 1.623 0 0 1-1.152.474c-.434 0-.843-.17-1.15-.475l-.43-.427a8.927 8.927 0 0 1-.979.403v.604c0 .893-.73 1.619-1.628 1.619h-2.677a1.625 1.625 0 0 1-1.628-1.619v-.604a8.991 8.991 0 0 1-.979-.403l-.43.428a1.624 1.624 0 0 1-1.15.474c-.435 0-.844-.169-1.152-.474l-1.893-1.882a1.614 1.614 0 0 1 0-2.289l.43-.427a8.847 8.847 0 0 1-.405-.972h-.608a1.625 1.625 0 0 1-1.628-1.619v-2.66c0-.893.73-1.62 1.628-1.62h.608a8.87 8.87 0 0 1 .405-.972l-.43-.427a1.614 1.614 0 0 1 0-2.288l1.893-1.882a1.623 1.623 0 0 1 1.151-.474c.435 0 .844.169 1.152.474l.43.427c.317-.153.643-.287.978-.402v-.604c0-.893.73-1.62 1.628-1.62h2.677c.898 0 1.628.727 1.628 1.62v.604c.334.115.66.25.979.402l.43-.427a1.622 1.622 0 0 1 1.15-.474c.435 0 .844.169 1.152.474l1.893 1.882a1.614 1.614 0 0 1 0 2.288l-.43.427c.154.316.29.64.405.973h.608c.898 0 1.628.726 1.628 1.618zm-2.171 2.122v-1.582h-.877c-.501 0-.937-.341-1.055-.825a6.749 6.749 0 0 0-.806-1.936 1.074 1.074 0 0 1 .159-1.325l.62-.616-1.126-1.118-.62.615a1.09 1.09 0 0 1-1.332.158 6.841 6.841 0 0 0-1.948-.8 1.08 1.08 0 0 1-.83-1.05v-.87h-1.592v.87c0 .499-.343.932-.83 1.05a6.842 6.842 0 0 0-1.948.8 1.09 1.09 0 0 1-1.332-.158l-.62-.615-1.125 1.118.62.616c.354.352.42.9.158 1.325a6.749 6.749 0 0 0-.806 1.936 1.085 1.085 0 0 1-1.055.825h-.877v1.582h.877c.501 0 .937.34 1.055.824.168.687.439 1.338.806 1.937.261.425.195.973-.159 1.325l-.62.615 1.126 1.119.62-.615a1.089 1.089 0 0 1 1.332-.159 6.842 6.842 0 0 0 1.948.801c.487.118.83.55.83 1.049v.871h1.592v-.871c0-.498.343-.931.83-1.049a6.842 6.842 0 0 0 1.948-.8 1.09 1.09 0 0 1 1.333.158l.619.615 1.126-1.119-.62-.615c-.354-.352-.42-.9-.16-1.325.368-.599.64-1.25.807-1.937a1.084 1.084 0 0 1 1.055-.824zm-3.329-.791c0 2.895-2.37 5.25-5.282 5.25s-5.282-2.355-5.282-5.25 2.37-5.25 5.282-5.25c2.913 0 5.282 2.355 5.282 5.25zm-2.17 0c0-1.705-1.396-3.093-3.112-3.093-1.715 0-3.111 1.388-3.111 3.093s1.396 3.092 3.111 3.092c1.716 0 3.112-1.387 3.112-3.092zm45.586 34.344v2.66c0 .893-.73 1.62-1.628 1.62h-.608c-.116.331-.25.656-.405.972l.43.427a1.614 1.614 0 0 1 0 2.289l-1.893 1.881a1.623 1.623 0 0 1-1.152.474c-.434 0-.843-.168-1.15-.474l-.43-.427a9.005 9.005 0 0 1-.979.402v.605c0 .892-.73 1.618-1.628 1.618h-2.677a1.625 1.625 0 0 1-1.628-1.618v-.605a9.068 9.068 0 0 1-.978-.402l-.43.427a1.622 1.622 0 0 1-1.151.474c-.435 0-.844-.168-1.152-.474l-1.893-1.881a1.614 1.614 0 0 1 0-2.29l.43-.426a8.91 8.91 0 0 1-.405-.973h-.608a1.625 1.625 0 0 1-1.628-1.618v-2.661c0-.893.73-1.619 1.628-1.619h.608c.116-.332.251-.656.405-.972l-.43-.427a1.614 1.614 0 0 1 0-2.289l1.893-1.881a1.623 1.623 0 0 1 1.152-.474c.435 0 .843.168 1.151.474l.43.427c.317-.153.644-.288.978-.403v-.604c0-.893.73-1.619 1.628-1.619h2.677c.898 0 1.628.726 1.628 1.619v.604c.334.115.661.25.979.403l.43-.427a1.622 1.622 0 0 1 1.15-.474c.435 0 .844.168 1.152.474l1.893 1.881a1.614 1.614 0 0 1 0 2.289l-.43.427c.154.316.29.64.405.972h.608c.898 0 1.628.726 1.628 1.619zm-2.17.54h-.878c-.5 0-.937-.342-1.055-.826a6.757 6.757 0 0 0-.805-1.936 1.074 1.074 0 0 1 .159-1.325l.62-.615-1.126-1.119-.62.616a1.09 1.09 0 0 1-1.332.158 6.842 6.842 0 0 0-1.949-.801 1.08 1.08 0 0 1-.83-1.049v-.871h-1.591v.871c0 .498-.343.931-.83 1.049a6.843 6.843 0 0 0-1.948.801 1.092 1.092 0 0 1-1.332-.158l-.62-.616-1.125 1.119.619.615c.354.352.42.9.16 1.325a6.758 6.758 0 0 0-.807 1.936 1.084 1.084 0 0 1-1.055.825h-.877v1.583h.877c.501 0 .937.34 1.055.824.168.686.439 1.338.806 1.936.26.426.195.973-.159 1.325l-.62.616 1.126 1.119.62-.616a1.09 1.09 0 0 1 1.332-.158 6.842 6.842 0 0 0 1.948.8c.487.118.83.551.83 1.05v.871h1.592v-.872c0-.498.343-.931.83-1.048a6.841 6.841 0 0 0 1.948-.801 1.09 1.09 0 0 1 1.332.158l.62.616 1.125-1.12-.62-.615c-.354-.352-.42-.9-.158-1.325a6.75 6.75 0 0 0 .805-1.936 1.084 1.084 0 0 1 1.055-.824h.877zm-3.33.79c0 2.895-2.369 5.25-5.281 5.25-2.913 0-5.283-2.355-5.283-5.25s2.37-5.25 5.283-5.25c2.912 0 5.282 2.355 5.282 5.25zm-2.17 0c0-1.705-1.396-3.093-3.111-3.093-1.716 0-3.112 1.388-3.112 3.093 0 1.706 1.396 3.093 3.112 3.093 1.715 0 3.111-1.387 3.111-3.093z" /></defs><g><g transform="translate(-525 -3401)"><use fill="#3bc8f5" xlink:href="#icon-work_a0e1a" /></g></g></symbol><symbol viewBox="0 0 504 504" id="icon-youtube">
<g>
	<g>
		<polygon points="219.6,202.4 219.6,294.4 304.4,248.8 		" />
	</g>
</g>
<g>
	<g>
		<path d="M377.6,0H126C56.8,0,0,56.8,0,126.4V378c0,69.2,56.8,126,126,126h251.6c69.6,0,126.4-56.8,126.4-126.4V126.4
			C504,56.8,447.2,0,377.6,0z M408,264.4c0,26.4-2.4,53.2-2.4,53.2s-2.8,22.4-12,32.4c-12,13.2-25.2,13.2-31.2,14
			c-44,3.2-110,3.6-110,3.6s-82-1.2-107.2-3.6c-6.8-1.2-22.8-0.8-34.8-14c-9.6-10-12-32.4-12-32.4S96,290.8,96,264.4v-24.8
			c0-26.4,2.4-53.2,2.4-53.2s2.8-22.4,12-32.4c12-13.2,25.2-13.6,31.2-14.4C186,136.4,252,136,252,136s66,0.4,110,3.6
			c6,0.8,19.6,1.2,31.6,14c9.6,10,12,32.8,12,32.8s2.4,26.8,2.4,53.2V264.4z" />
	</g>
</g>
<g>
</g>
<g>
</g>
<g>
</g>
<g>
</g>
<g>
</g>
<g>
</g>
<g>
</g>
<g>
</g>
<g>
</g>
<g>
</g>
<g>
</g>
<g>
</g>
<g>
</g>
<g>
</g>
<g>
</g>
</symbol></defs></svg>